<svg width="24" height="24" viewBox="0 0 24 24" fill="none" xmlns="http://www.w3.org/2000/svg">
<path d="M5.44114 1.96604C5.58408 1.43257 6.13242 1.11599 6.66589 1.25893C7.19935 1.40187 7.51594 1.95021 7.37299 2.48368L2.45543 20.8363C2.31249 21.3697 1.76415 21.6863 1.23069 21.5434C0.697221 21.4004 0.380638 20.8521 0.52358 20.3186L5.44114 1.96604Z" fill="black"/>
<path d="M7.11417 3.4496L10.9779 4.48488L9.9426 8.34858L6.0789 7.31331L7.11417 3.4496Z" fill="black"/>
<path d="M14.8416 5.52015L18.7053 6.55543L17.67 10.4191L13.8063 9.38386L14.8416 5.52015Z" fill="black"/>
<path d="M9.9426 8.34858L13.8063 9.38386L12.771 13.2476L8.90733 12.2123L9.9426 8.34858Z" fill="black"/>
<path d="M17.67 10.4191L21.5337 11.4544L20.4984 15.3181L16.6347 14.2828L17.67 10.4191Z" fill="black"/>
<path d="M5.04362 11.177L8.90733 12.2123L7.87205 16.076L4.00835 15.0407L5.04362 11.177Z" fill="black"/>
<path d="M12.771 13.2476L16.6347 14.2828L15.5995 18.1465L11.7358 17.1113L12.771 13.2476Z" fill="black"/>
<path fill-rule="evenodd" clip-rule="evenodd" d="M7.37299 2.48368L21.8619 6.36596C22.9288 6.65184 23.562 7.74852 23.2761 8.81545L20.6879 18.4747C20.402 19.5416 19.3053 20.1748 18.2384 19.8889L3.74953 16.0066L5.04362 11.177L8.90733 12.2123L7.87205 16.076L11.7358 17.1113L12.771 13.2476L8.90733 12.2123L9.9426 8.34858L6.0789 7.31331L7.37299 2.48368ZM10.9779 4.48488L14.8416 5.52015L13.8063 9.38386L9.9426 8.34858L10.9779 4.48488ZM16.6347 14.2828L17.67 10.4191L13.8063 9.38386L12.771 13.2476L16.6347 14.2828ZM16.6347 14.2828L15.5995 18.1465L18.4972 18.923C19.0307 19.0659 19.579 18.7494 19.722 18.2159L20.4984 15.3181L16.6347 14.2828ZM21.6031 7.33189L18.7053 6.55543L17.67 10.4191L21.5337 11.4544L22.3102 8.55663C22.4531 8.02317 22.1365 7.47483 21.6031 7.33189Z" fill="black"/>
</svg>
