<svg width="80" height="80" viewBox="0 0 80 80" fill="none" xmlns="http://www.w3.org/2000/svg">
<path d="M24.3642 40.1504L6.1429 42.395C4.97289 42.5572 4.07471 43.5584 4.07471 44.7477V75.0419H24.3642V40.1504ZM12.2907 70.5151C12.2907 71.4294 11.5438 72.1721 10.6244 72.1721C9.70491 72.1721 8.95798 71.4294 8.95798 70.5151V68.2752C8.95798 67.3609 9.70491 66.6181 10.6244 66.6181C11.5438 66.6181 12.2907 67.3609 12.2907 68.2752V70.5151ZM12.2907 60.9866C12.2907 61.9009 11.5438 62.6436 10.6244 62.6436C9.70491 62.6436 8.95798 61.875 8.95798 60.9866V58.7326C8.95798 57.8183 9.70491 57.0755 10.6244 57.0755C11.5438 57.0755 12.2907 57.8183 12.2907 58.7326V60.9866ZM12.2907 51.444C12.2907 52.3583 11.5438 53.101 10.6244 53.101C9.70491 53.101 8.95798 52.3583 8.95798 51.444V49.19C8.95798 48.2898 9.73091 47.5353 10.6244 47.5353C11.5178 47.5353 12.2907 48.278 12.2907 49.19V51.444ZM20.4217 70.5151C20.4217 71.4294 19.6747 72.1721 18.7553 72.1721C17.8358 72.1721 17.089 71.4294 17.089 70.5151V68.2752C17.089 67.3609 17.8358 66.6181 18.7553 66.6181C19.6747 66.6181 20.4217 67.3609 20.4217 68.2752V70.5151ZM20.4217 60.9866C20.4217 61.875 19.6629 62.6436 18.7553 62.6436C17.8476 62.6436 17.089 61.9009 17.089 60.9866V58.7326C17.089 57.8183 17.8358 57.0755 18.7553 57.0755C19.6747 57.0755 20.4217 57.8183 20.4217 58.7326V60.9866ZM20.4217 51.444C20.4217 52.3583 19.6747 53.101 18.7553 53.101C17.8358 53.101 17.089 52.3583 17.089 51.444V49.19C17.089 48.2757 17.8358 47.5353 18.7553 47.5353C19.6747 47.5353 20.4217 48.2898 20.4217 49.19V51.444Z" fill="black"/>
<path d="M40.8721 60.9449V75.0379H52.7021V58.5898H43.2381C41.931 58.5898 40.8721 59.6452 40.8721 60.9426V60.9449ZM45.1621 65.1192C45.1621 64.2049 45.909 63.4622 46.8285 63.4622C47.7479 63.4622 48.4948 64.2049 48.4948 65.1192V67.3592C48.4948 68.2735 47.7479 69.0162 46.8285 69.0162C45.909 69.0162 45.1621 68.2735 45.1621 67.3592V65.1192Z" fill="black"/>
<path d="M75.9273 35.4986C75.9273 34.1753 74.866 33.12 73.5613 33.12H71.1149V31.3079C71.1149 30.0363 70.0819 29.0068 68.8032 29.0068H67.0092V26.2216C67.0092 25.2768 66.2481 24.5176 65.3215 24.5176C64.395 24.5176 63.6079 25.2744 63.6079 26.2216V29.0068H61.8139C60.5352 29.0068 59.5023 30.0339 59.5023 31.3079V33.12H57.0819C55.7488 33.12 54.6875 34.1753 54.6875 35.4986V75.0415H75.9273V35.4986ZM62.9177 70.51C62.9177 71.4243 62.1708 72.167 61.2514 72.167C60.3319 72.167 59.585 71.4243 59.585 70.51V68.2701C59.585 67.3558 60.3319 66.613 61.2514 66.613C62.1708 66.613 62.9177 67.3558 62.9177 68.2701V70.51ZM62.9177 60.9815C62.9177 61.8958 62.1708 62.6385 61.2514 62.6385C60.3319 62.6385 59.585 61.8817 59.585 60.9815V58.7298C59.585 57.8155 60.3319 57.0728 61.2514 57.0728C62.1708 57.0728 62.9177 57.8155 62.9177 58.7298V60.9815ZM62.9177 51.4413C62.9177 52.3556 62.1708 53.0983 61.2514 53.0983C60.3319 53.0983 59.585 52.3556 59.585 51.4413V49.2014C59.585 48.2871 60.3319 47.5443 61.2514 47.5443C62.1708 47.5443 62.9177 48.2871 62.9177 49.2014V51.4413ZM62.9177 41.8987C62.9177 42.813 62.1708 43.5557 61.2514 43.5557C60.3319 43.5557 59.585 42.813 59.585 41.8987V39.647C59.585 38.7492 60.3484 37.99 61.2514 37.99C62.1543 37.99 62.9177 38.7327 62.9177 39.647V41.8987ZM71.0463 70.5123C71.0463 71.4266 70.2994 72.1694 69.38 72.1694C68.4605 72.1694 67.7136 71.4266 67.7136 70.5123V68.2724C67.7136 67.3581 68.4605 66.6154 69.38 66.6154C70.2994 66.6154 71.0463 67.3581 71.0463 68.2724V70.5123ZM71.0463 60.9839C71.0463 61.8841 70.2829 62.6409 69.38 62.6409C68.4771 62.6409 67.7136 61.8982 67.7136 60.9839V58.7322C67.7136 57.8179 68.4605 57.0752 69.38 57.0752C70.2994 57.0752 71.0463 57.8179 71.0463 58.7322V60.9839ZM71.0463 51.4436C71.0463 52.3579 70.2994 53.1007 69.38 53.1007C68.4605 53.1007 67.7136 52.3579 67.7136 51.4436V49.2037C67.7136 48.2894 68.4605 47.5467 69.38 47.5467C70.2994 47.5467 71.0463 48.2894 71.0463 49.2037V51.4436ZM71.0463 41.9011C71.0463 42.8154 70.2994 43.5581 69.38 43.5581C68.4605 43.5581 67.7136 42.8154 67.7136 41.9011V39.6494C67.7136 38.7351 68.4605 37.9924 69.38 37.9924C70.2994 37.9924 71.0463 38.7515 71.0463 39.6494V41.9011Z" fill="black"/>
<path d="M38.8584 60.9454C38.8584 58.5645 40.8179 56.6183 43.2383 56.6183H47.5897V25.9528C47.5897 24.653 46.5284 23.6001 45.2237 23.6001H42.7774V21.7597C42.7774 20.4905 41.7444 19.461 40.4657 19.461H38.6717V16.6758C38.6717 15.731 37.9106 15 36.9841 15C36.0575 15 35.2704 15.731 35.2704 16.6758V19.461H33.474C32.1976 19.461 31.1624 20.4882 31.1624 21.7597V23.6001H28.742C27.4373 23.6001 26.376 24.6554 26.376 25.9528V75.0407H38.8584V60.9478V60.9454ZM39.3831 30.12C39.3831 29.2057 40.1301 28.463 41.0495 28.463C41.969 28.463 42.7159 29.2175 42.7159 30.12V32.3741C42.7159 33.2884 41.969 34.0287 41.0495 34.0287C40.1301 34.0287 39.3831 33.286 39.3831 32.3741V30.12ZM39.3831 39.6603C39.3831 38.746 40.1301 38.0033 41.0495 38.0033C41.969 38.0033 42.7159 38.746 42.7159 39.6603V41.9002C42.7159 42.8145 41.969 43.5549 41.0495 43.5549C40.1301 43.5549 39.3831 42.8121 39.3831 41.9002V39.6603ZM39.3831 49.2029C39.3831 48.2886 40.1301 47.5458 41.0495 47.5458C41.969 47.5458 42.7159 48.2886 42.7159 49.2029V51.4428C42.7159 52.3571 41.969 53.0998 41.0495 53.0998C40.1301 53.0998 39.3831 52.3571 39.3831 51.4428V49.2029ZM34.5849 70.5115C34.5849 71.4258 33.8381 72.1685 32.9186 72.1685C31.9991 72.1685 31.2522 71.4258 31.2522 70.5115V68.2716C31.2522 67.3573 31.9991 66.6145 32.9186 66.6145C33.8381 66.6145 34.5849 67.3573 34.5849 68.2716V70.5115ZM34.5849 60.983C34.5849 61.8973 33.8381 62.64 32.9186 62.64C31.9991 62.64 31.2522 61.8715 31.2522 60.983V58.729C31.2522 57.8147 31.9991 57.072 32.9186 57.072C33.8381 57.072 34.5849 57.8147 34.5849 58.729V60.983ZM34.5849 51.4404C34.5849 52.3547 33.8381 53.0975 32.9186 53.0975C31.9991 53.0975 31.2522 52.3547 31.2522 51.4404V49.2005C31.2522 48.2862 31.9991 47.5435 32.9186 47.5435C33.8381 47.5435 34.5849 48.2862 34.5849 49.2005V51.4404ZM34.5849 41.9002C34.5849 42.8145 33.8381 43.5549 32.9186 43.5549C31.9991 43.5549 31.2522 42.8121 31.2522 41.9002V39.6603C31.2522 38.746 31.9991 38.0033 32.9186 38.0033C33.8381 38.0033 34.5849 38.746 34.5849 39.6603V41.9002ZM34.5849 32.3717C34.5849 33.286 33.8381 34.0264 32.9186 34.0264C31.9991 34.0264 31.2522 33.2837 31.2522 32.3717V30.1177C31.2522 29.2151 32.011 28.4607 32.9186 28.4607C33.8262 28.4607 34.5849 29.2034 34.5849 30.1177V32.3717Z" fill="black"/>
<path d="M0.857976 76.6836H79.1443C79.6171 76.6836 80 77.0644 80 77.5344V79.1492C80 79.6192 79.6171 80 79.1443 80H0.85561C0.382881 80 0 79.6192 0 79.1492V77.5368C0 77.0667 0.382881 76.6859 0.85561 76.6859L0.857976 76.6836Z" fill="black"/>
</svg>
