<svg width="80" height="80" viewBox="0 0 80 80" fill="none" xmlns="http://www.w3.org/2000/svg">
<path d="M57.3447 11.4722C58.4811 11.4722 59.3994 10.5775 59.3994 9.47016V6.70715C59.3994 5.59984 58.4811 4.70508 57.3447 4.70508C56.2083 4.70508 55.29 5.59984 55.29 6.70715V9.47016C55.29 10.5775 56.2083 11.4722 57.3447 11.4722Z" fill="black"/>
<path d="M46.8967 14.5125C47.2952 14.9034 47.823 15.1002 48.3481 15.1002C48.8732 15.1002 49.401 14.9034 49.7995 14.5125C50.602 13.7332 50.602 12.4606 49.7995 11.6812L47.7961 9.72903C46.9963 8.94709 45.6902 8.94709 44.8904 9.72903C44.088 10.5083 44.088 11.781 44.8904 12.5603L46.894 14.5125H46.8967Z" fill="black"/>
<path d="M41.791 23.8655H44.6266C45.763 23.8655 46.6813 22.9707 46.6813 21.8634C46.6813 20.7561 45.763 19.8613 44.6266 19.8613H41.791C40.6546 19.8613 39.7363 20.7561 39.7363 21.8634C39.7363 22.9707 40.6546 23.8655 41.791 23.8655Z" fill="black"/>
<path d="M44.8929 31.1656C44.0904 31.9449 44.0904 33.2175 44.8929 33.9969C45.2914 34.3878 45.8193 34.5846 46.3471 34.5846C46.8749 34.5846 47.4 34.3878 47.7985 33.9969L49.802 32.0446C50.6045 31.2653 50.6045 29.9927 49.802 29.2134C49.0022 28.4315 47.6962 28.4315 46.8964 29.2134L44.8929 31.1656Z" fill="black"/>
<path d="M57.3447 32.2598C56.2083 32.2598 55.29 33.1545 55.29 34.2618V37.0222C55.29 38.1295 56.2083 39.0243 57.3447 39.0243C58.4811 39.0243 59.3994 38.1295 59.3994 37.0222V34.2618C59.3994 33.1545 58.4811 32.2598 57.3447 32.2598Z" fill="black"/>
<path d="M67.7933 29.2085C66.9909 28.4266 65.6875 28.4292 64.885 29.2085C64.0826 29.9905 64.0852 31.2604 64.885 32.0424L66.8913 33.9946C67.2925 34.3856 67.8176 34.5797 68.3427 34.5797C68.8678 34.5797 69.3956 34.3829 69.7968 33.992C70.5993 33.21 70.5966 31.94 69.7968 31.1581L67.7907 29.2059L67.7933 29.2085Z" fill="black"/>
<path d="M72.9012 19.8613H70.0683C68.9319 19.8613 68.0137 20.7561 68.0137 21.8634C68.0137 22.9707 68.9319 23.8655 70.0683 23.8655H72.9012C74.0376 23.8655 74.9559 22.9707 74.9559 21.8634C74.9559 20.7561 74.0376 19.8613 72.9012 19.8613Z" fill="black"/>
<path d="M66.3415 15.1012C66.8693 15.1012 67.3917 14.9071 67.7929 14.5161L69.7991 12.5639C70.6016 11.7819 70.6043 10.512 69.7991 9.73001C68.9939 8.94808 67.6933 8.94545 66.8909 9.73001L64.8846 11.6822C64.0821 12.4642 64.0794 13.7342 64.8846 14.5161C65.2858 14.9071 65.8137 15.1039 66.3388 15.1039L66.3415 15.1012Z" fill="black"/>
<path d="M57.3473 29.3314C61.5814 29.3314 65.0139 25.9868 65.0139 21.861C65.0139 17.7352 61.5814 14.3906 57.3473 14.3906C53.1131 14.3906 49.6807 17.7352 49.6807 21.861C49.6807 25.9868 53.1131 29.3314 57.3473 29.3314Z" fill="black"/>
<path d="M50.1494 43.5507C49.7805 41.3256 47.5347 39.746 45.1003 40.3311C43.1937 40.7877 41.9658 42.614 42.0439 44.5242L42.5098 55.655L36.8413 55.7573L35.8099 29.6281C35.6968 26.7575 33.5478 24.1939 30.6153 23.8921C27.2115 23.5405 24.3005 26.0648 24.1713 29.3106L23.4226 48.2843L17.4579 48.1767L17.9292 36.8728C18.0261 34.6214 16.1492 32.6351 13.6422 32.7322C11.6817 32.8083 10.1037 34.3538 9.78863 36.2404L7.07419 52.5535C7.03111 52.8185 7.00688 53.1176 7.01226 53.3984C7.06343 56.0066 9.27161 58.0821 11.9483 58.0323H12.153L23.0457 57.8329L22.3644 75.0617H2.53404C1.13374 75.0617 0 76.1664 0 77.5308C0 78.8953 1.13374 79.9999 2.53404 79.9999H77.466C78.8663 79.9999 80 78.8953 80 77.5308C80 76.1664 78.8663 75.0617 77.466 75.0617H37.6034L37.2182 65.3216L47.8147 65.5131L48.0464 65.5184C48.7411 65.5263 49.4628 65.3898 50.1683 65.0697C52.188 64.1539 53.2059 61.9052 52.8504 59.7615L50.1548 43.5586L50.1494 43.5507Z" fill="black"/>
</svg>
