<svg width="80" height="80" viewBox="0 0 80 80" fill="none" xmlns="http://www.w3.org/2000/svg">
<path d="M75.8703 48.9031C73.5046 46.6794 70.2095 45.6022 65.816 45.6022C61.4226 45.6022 56.7756 46.6498 52.5723 47.5689C49.2983 48.2904 46.1933 48.9723 44.1655 48.9723C43.3417 48.9723 43.0249 48.8537 43.0355 48.8833C42.2539 48.152 42.2222 48.1026 43.8804 46.0272C45.4645 44.0506 48.7702 39.9195 44.1338 35.5907C42.5708 34.1281 40.2368 33.377 37.2268 33.377C31.4815 33.377 23.4866 36.0355 16.4423 38.3777C14.6786 38.9608 12.9888 39.5242 11.4363 40.0084C3.36752 42.5286 0.875061 46.1952 0.209704 48.8438C-0.434531 51.4233 0.420924 54.062 2.56485 56.0683L13.5063 66.3071C15.9565 68.5999 18.4067 69.0842 20.0437 69.0842C23.0431 69.0842 25.7151 67.4337 26.8451 64.8641C28.123 61.9684 27.2359 58.6774 24.4477 56.0683C23.4972 55.1788 23.0959 54.2498 23.3916 53.5877C23.8035 52.6685 25.3243 52.797 26.6339 54.0225L39.3602 65.9315L43.7431 61.8399L31.0168 49.931C28.5666 47.6381 26.1058 47.1538 24.4794 47.1538C21.48 47.1538 18.808 48.8142 17.678 51.3739C16.4001 54.2696 17.2872 57.5606 20.0754 60.1697C21.0259 61.0592 21.4272 61.9882 21.1315 62.6504C20.7196 63.5695 19.1988 63.4509 17.8892 62.2155L6.94777 51.9767C6.32466 51.3936 6.08174 50.7908 6.24015 50.178C6.55699 48.9031 8.61645 47.0056 13.4007 45.5133C14.9954 45.0191 16.7169 44.4459 18.5229 43.843C24.7751 41.7676 32.5587 39.1783 37.2374 39.1783C39.075 39.1783 39.6347 39.5736 39.772 39.6922C40.5641 40.4334 40.6064 40.4729 38.9377 42.5582C37.3535 44.5348 34.0479 48.6659 38.6737 52.9947C39.9516 54.1905 41.747 54.7637 44.1655 54.7637C46.922 54.7637 50.3544 54.0126 53.9875 53.2121C58.0535 52.3226 62.2569 51.3936 65.816 51.3936C68.488 51.3936 70.3363 51.9174 71.4874 52.9947C73.0294 54.4277 73.8109 55.8014 73.8214 57.0665C73.8214 58.3414 73.0505 59.725 71.4874 61.1877L68.4035 64.0735C65.1507 67.1175 60.8206 71.1695 60.546 71.4264C58.3493 73.4821 57.6628 73.7094 57.4621 73.7094C56.4588 73.7094 53.3538 70.8433 50.0059 67.7104L45.6335 71.802C51.2732 77.0795 53.9452 79.5008 57.4727 79.5008C60.4298 79.5008 62.6899 77.6231 64.9183 75.5279C65.1824 75.2808 69.5125 71.2288 72.7759 68.1749L75.8598 65.2891C78.6268 62.6998 80.0209 59.9226 79.9998 57.0368C79.9786 54.2004 78.5846 51.4628 75.8598 48.913L75.8703 48.9031ZM49.0659 62.7195C48.1577 61.8696 46.6896 61.8696 45.7814 62.7195L40.3107 67.8389C39.4024 68.6889 39.4024 70.0626 40.3107 70.9125C41.2189 71.7625 42.687 71.7625 43.5952 70.9125L49.0659 65.7931C49.9742 64.9432 49.9742 63.5695 49.0659 62.7195Z" fill="black"/>
<path d="M58.3437 17C57.7312 17 57.1928 17.4623 57.1384 18.0355L55.0044 40.8391C54.9501 41.4123 55.4045 41.8745 56.0171 41.8745C56.6296 41.8745 57.1681 41.4123 57.2224 40.8391L59.3564 18.0355C59.4107 17.4623 58.9563 17 58.3437 17ZM63.9406 31.4504C64.9236 31.5152 65.9116 31.6538 66.8946 31.8156C66.9786 30.9096 67.0675 30.0035 67.1515 29.0975C66.1684 28.9265 65.1805 28.7832 64.1974 28.7046C64.1135 29.6199 64.0246 30.5352 63.9406 31.4504ZM59.8504 23.3931L59.5886 26.213C60.2258 26.065 60.868 25.968 61.5052 25.9217C61.5892 24.9926 61.6781 24.068 61.7621 23.1389C61.1249 23.1759 60.4876 23.2591 59.8504 23.3931ZM59.0551 31.8757C59.6973 31.6954 60.3444 31.5706 60.9865 31.4967C61.0705 30.5675 61.1595 29.6337 61.2434 28.7046C60.6012 28.7647 59.9591 28.8756 59.3169 29.0374L59.0501 31.8711L59.0551 31.8757ZM79.2244 26.9387C79.3084 25.9911 79.3973 25.0434 79.4813 24.0912C78.4983 24.4101 77.5103 24.5904 76.5273 24.6644C76.4384 25.5935 76.3544 26.5181 76.2704 27.4472C77.2534 27.3917 78.2414 27.2346 79.2244 26.9387ZM78.7107 32.6107C78.7947 31.6677 78.8836 30.7247 78.9676 29.7817C77.9845 30.0544 76.9966 30.1885 76.0135 30.2301C75.9296 31.1546 75.8407 32.0791 75.7567 33.0037C76.7397 32.9805 77.7277 32.865 78.7107 32.6154V32.6107ZM69.8486 32.3611C70.8316 32.546 71.8196 32.7171 72.8027 32.8326C72.8866 31.922 72.9755 31.0113 73.0595 30.1006C72.0765 29.9897 71.0885 29.8233 70.1055 29.643C70.0215 30.549 69.9326 31.4551 69.8486 32.3611ZM62.019 20.3653C62.103 19.4408 62.1919 18.5162 62.2808 17.5917C61.6337 17.6056 60.9866 17.6703 60.3345 17.7766C60.3444 17.8922 60.3493 18.0031 60.3394 18.1187L60.1073 20.5779C60.7445 20.4624 61.3817 20.3884 62.014 20.3653H62.019ZM64.7161 23.2267C64.8001 22.3161 64.889 21.4008 64.973 20.4901C65.956 20.6011 66.944 20.7675 67.927 20.9478C68.011 20.0417 68.0999 19.1357 68.1839 18.2296C67.2009 18.0493 66.2129 17.8737 65.2299 17.7581C65.1459 18.6688 65.057 19.5794 64.973 20.4901C63.99 20.3792 63.007 20.3237 62.019 20.3653C61.935 21.2898 61.8461 22.2144 61.7621 23.1435C62.7451 23.088 63.7331 23.1296 64.7161 23.2267ZM67.4083 26.3794C67.3244 27.2854 67.2354 28.1915 67.1515 29.0975C68.1345 29.2685 69.1225 29.4627 70.1055 29.643C70.1895 28.7369 70.2784 27.8309 70.3624 26.9249C69.3793 26.7492 68.3914 26.5504 67.4083 26.3794ZM73.3164 27.364C73.2324 28.2747 73.1435 29.19 73.0595 30.1006C74.0425 30.2116 75.0305 30.267 76.0135 30.2254C76.0975 29.3009 76.1864 28.3764 76.2704 27.4472C75.2874 27.5027 74.2994 27.4611 73.3164 27.364ZM70.881 21.4932C71.8641 21.6643 72.8471 21.8076 73.8351 21.8862C73.924 20.9709 74.008 20.0556 74.0919 19.1403C73.1089 19.0756 72.121 18.9369 71.1379 18.7705C71.0539 19.6765 70.965 20.5826 70.881 21.4886C69.898 21.3176 68.9101 21.1234 67.927 20.9431C67.8431 21.8492 67.7541 22.7552 67.6701 23.6613C68.6532 23.8369 69.6362 24.0357 70.6242 24.2067C70.7131 23.3007 70.7971 22.3946 70.886 21.4886L70.881 21.4932ZM79.7431 21.2436C79.832 20.2913 79.916 19.3391 80 18.3868C79.017 18.7566 78.029 18.9785 77.046 19.0941C76.962 20.0232 76.8731 20.957 76.7891 21.8862C75.8061 21.9786 74.8181 21.9647 73.8351 21.8862C73.7511 22.8014 73.6622 23.7167 73.5782 24.6274C74.5612 24.7152 75.5443 24.743 76.5322 24.669C76.6211 23.7398 76.7051 22.8107 76.7891 21.8815C77.7721 21.7891 78.7552 21.5903 79.7431 21.2436ZM73.3213 27.364C73.4053 26.4533 73.4942 25.5381 73.5782 24.6228C72.5952 24.5349 71.6121 24.3824 70.6242 24.2067C70.5402 25.1128 70.4513 26.0188 70.3673 26.9249C71.3503 27.1005 72.3383 27.2623 73.3213 27.3594V27.364ZM67.4133 26.3794C67.4973 25.4733 67.5862 24.5673 67.6701 23.6613C66.6871 23.4856 65.6992 23.3238 64.7161 23.2267C64.6322 24.1374 64.5432 25.0527 64.4593 25.9633C65.4423 26.0512 66.4303 26.2037 67.4133 26.3794ZM61.5052 25.9217C61.4213 26.8509 61.3323 27.78 61.2484 28.7092C62.2314 28.6167 63.2144 28.6306 64.2024 28.7092C64.2864 27.7939 64.3753 26.8786 64.4593 25.968C63.4762 25.8801 62.4883 25.8524 61.5052 25.9264V25.9217Z" fill="black"/>
</svg>
